<svg width="20" height="20" viewBox="0 0 20 20" fill="none" xmlns="http://www.w3.org/2000/svg">
<path d="M17.3082 16.2751C17.3082 16.5751 17.2415 16.8834 17.0998 17.1834C16.9582 17.4834 16.7748 17.7667 16.5332 18.0334C16.1248 18.4834 15.6748 18.8084 15.1665 19.0167C14.6665 19.2251 14.1248 19.3334 13.5415 19.3334C12.6915 19.3334 11.7832 19.1334 10.8248 18.7251C9.8665 18.3167 8.90817 17.7667 7.95817 17.0751C6.99984 16.3751 6.0915 15.6001 5.22484 14.7417C4.3665 13.8751 3.5915 12.9667 2.89984 12.0167C2.2165 11.0667 1.6665 10.1167 1.2665 9.17508C0.866504 8.22508 0.666504 7.31675 0.666504 6.45008C0.666504 5.88341 0.766504 5.34175 0.966504 4.84175C1.1665 4.33341 1.48317 3.86675 1.92484 3.45008C2.45817 2.92508 3.0415 2.66675 3.65817 2.66675C3.8915 2.66675 4.12484 2.71675 4.33317 2.81675C4.54984 2.91675 4.7415 3.06675 4.8915 3.28341L6.82484 6.00842C6.97484 6.21675 7.08317 6.40841 7.15817 6.59175C7.23317 6.76675 7.27484 6.94175 7.27484 7.10008C7.27484 7.30008 7.2165 7.50008 7.09984 7.69175C6.9915 7.88341 6.83317 8.08341 6.63317 8.28341L5.99984 8.94175C5.90817 9.03341 5.8665 9.14175 5.8665 9.27508C5.8665 9.34175 5.87484 9.40008 5.8915 9.46675C5.9165 9.53341 5.9415 9.58341 5.95817 9.63341C6.10817 9.90841 6.3665 10.2667 6.73317 10.7001C7.10817 11.1334 7.50817 11.5751 7.9415 12.0167C8.3915 12.4584 8.82484 12.8667 9.2665 13.2417C9.69984 13.6084 10.0582 13.8584 10.3415 14.0084C10.3832 14.0251 10.4332 14.0501 10.4915 14.0751C10.5582 14.1001 10.6248 14.1084 10.6998 14.1084C10.8415 14.1084 10.9498 14.0584 11.0415 13.9667L11.6748 13.3417C11.8832 13.1334 12.0832 12.9751 12.2748 12.8751C12.4665 12.7584 12.6582 12.7001 12.8665 12.7001C13.0248 12.7001 13.1915 12.7334 13.3748 12.8084C13.5582 12.8834 13.7498 12.9917 13.9582 13.1334L16.7165 15.0917C16.9332 15.2417 17.0832 15.4167 17.1748 15.6251C17.2582 15.8334 17.3082 16.0417 17.3082 16.2751Z" stroke="white" stroke-width="1.2" stroke-miterlimit="10"/>
<path d="M14.4167 8.50016C14.4167 8.00016 14.025 7.2335 13.4417 6.6085C12.9083 6.0335 12.2 5.5835 11.5 5.5835" stroke="white" stroke-width="1.2" stroke-linecap="round" stroke-linejoin="round"/>
<path d="M17.3333 8.50008C17.3333 5.27508 14.725 2.66675 11.5 2.66675" stroke="white" stroke-width="1.2" stroke-linecap="round" stroke-linejoin="round"/>
</svg>
